<svg xmlns="http://www.w3.org/2000/svg" viewBox="0 0 185.6 124.81"><defs><style>.cls-1,.cls-2{fill:#fff;}.cls-2{font-size:28.91px;font-family:BerlinSansFBDemi-Bold, Berlin Sans FB Demi;font-weight:700;}</style></defs><title>logoAsset 1</title><g id="Layer_2" data-name="Layer 2"><g id="Layer_1-2" data-name="Layer 1"><path class="cls-1" d="M88.49,48.4H85.63V19.89L88.49,27ZM65.59,9.86,62.73,17V48.41h2.86ZM57,31.06V48.42h2.86V24.12l-2.55,6.35A4.08,4.08,0,0,1,57,31.06ZM79.9,48.4h2.86V12.83L79.9,5.76Zm71.39-4.55a15.4,15.4,0,0,1-2.86-.86v5.37h2.86Zm-137,4.6H11.45v1.64l2.86.38ZM114.09,19V48.38H117V18A3.79,3.79,0,0,0,114.09,19ZM22.67,48.44h2.86V42.26a14.21,14.21,0,0,1-2.86,1Zm-14.08,0H5.72v.87l2.87.38Zm-5.73.49v-.49H0v.1Zm151.3-.59H157V44.66l-2.86-.36ZM0,48.45H2.86v-.78L0,48.3Zm11.45,0h2.86v-3.3l-2.86.63Zm19.8-10.72a18.5,18.5,0,0,1-2.86,2.75v8h2.86ZM20,43.88l-2.86.64v3.92H20ZM5.72,48.45H8.59v-2L5.72,47Zm137-.09h2.86V41.5a19.05,19.05,0,0,1-2.86-2.36Zm-59.95,0H79.9V61a1.49,1.49,0,0,1,.12.14l2.62,7.73c0,.09.09.16.12.25Zm5.73,0H85.63V69c0-.1.08-.18.11-.29l1.23-5A4.78,4.78,0,0,1,88.49,62Zm17,0h-2.86V82.81a12.58,12.58,0,0,0,.71,1.53,14.45,14.45,0,0,0,2.15,3Zm-71.4,0H37V24.6s0,.08,0,.13l-.66,2.68a27.68,27.68,0,0,1-2.17,5.94Zm25.76,0H57v17l2.12-6.62a1,1,0,0,1,.74-.73Zm68.53-.05h-2.86V67.76l1.42-3.6a2.39,2.39,0,0,1,1.44-1.26Zm22.89,0h-2.86V72.25a11.27,11.27,0,0,0,.54-1.67l.69-2.86A26.5,26.5,0,0,1,151.29,63Zm-17.17,0h-2.86V62.83a2.36,2.36,0,0,1,1.56,1.25l1.3,3.13Zm37.17,0h2.86V46.81l-2.86-.36Zm-120,.08h2.86V32.54a3.17,3.17,0,0,1-2-2l-.83-2Zm128.58-.89L177,47.17v1.17h2.86Zm-14.3.82h2.86V46.09l-2.86-.36Zm-5.73,0h2.86v-3L159.84,45Zm-34.3,0h2.86V32.24l-1,3.1c-.36,1.12-1.13,1.59-1.85,1.46Zm-17.17,0h2.86V25.69l-1.53,5.93a4.4,4.4,0,0,1-1.33,2.26Zm11.45,0h2.86V29.05l-1.42-6.22a7.74,7.74,0,0,0-1.44-3.15Zm-80-28.6V48.43H42.7V18.52A5.64,5.64,0,0,0,39.84,19.78Zm91.42,6.84V48.37h2.86v-22A3,3,0,0,0,131.26,26.62Zm8.59,49.93V48.36H137v25.4A7.21,7.21,0,0,0,139.85,76.55Zm5.72-.47V48.36h-2.86V77.14A5.73,5.73,0,0,0,145.57,76.08Zm-25.69,6,2.8-7.09V48.38h-2.86V82.21ZM137,30.61l0-.14v17.9h2.86V35.79A28.09,28.09,0,0,1,137,30.61Zm-33,2.4-1.42-2.33V48.39h2.86v-14A3.4,3.4,0,0,1,104.07,33ZM117,48.38h-2.86v41A9.61,9.61,0,0,0,117,87Zm-5.72,41.67V48.38h-2.86V89.46A6.61,6.61,0,0,0,111.23,90.05ZM96.92,33.61V48.39h2.86V31A6.33,6.33,0,0,1,96.92,33.61ZM185.6,48.33h-2.86V49l2.86-.55Zm-2.86-.45v.46h2.86v-.09Zm-2.87.46H177v1.79l2.86-.55Zm-5.72,0h-2.86v2.89l2.86-.55ZM157,55.53V48.35h-2.86v10A16.72,16.72,0,0,1,157,55.53Zm5.68-2.64V48.35h-2.86V53.8A12.66,12.66,0,0,1,162.2,53Zm5.73-4.54h-2.86v4l2.86-.55ZM20,48.44H17.17v2.41l2.86.39ZM54.15,69.22V48.42H51.29v20.8A3.52,3.52,0,0,0,54.15,69.22ZM42.7,48.43H39.84v7a19.28,19.28,0,0,1,2.86,2.24ZM45.56,19v29.4h2.86V21.8A6.86,6.86,0,0,0,45.56,19Zm2.86,46.91V48.42H45.56V60.9A27,27,0,0,1,48.42,65.94ZM25.53,48.44H22.67v3.15l2.86.39Zm5.72,0H28.39v3.92l2.86.38ZM99.78,73.92V48.39H96.92V64.68ZM37,54V48.43H34.11v4.75A14.62,14.62,0,0,1,37,54Zm28.2,23.24a6.26,6.26,0,0,0,.41,1.11V48.41H62.73V66.66Zm29-15.48V48.39H91.35V61.13A6.06,6.06,0,0,1,94.21,61.75Zm-2.86-29.4v16h2.86V34A5.41,5.41,0,0,1,91.35,32.35ZM74.18,0V48.41H77V1.29A5.48,5.48,0,0,0,74.18,0ZM71.32,80.16V48.41H68.46V81A3.23,3.23,0,0,0,71.32,80.16ZM68.46,3.21v45.2h2.86V.5A7.13,7.13,0,0,0,68.46,3.21ZM76.76,62a2.84,2.84,0,0,1,.28-.71V48.4H74.18V72.2Z"/><text class="cls-2" transform="translate(70.01 118.9) scale(0.71 1)">Buxx</text></g></g></svg>